:version 1.10
:name ASF
:units
  mass 1
  length 1
  angle deg
:documentation
  ASF file generated by Kaydara
:root
  axis xyz
  order  tx ty tz rx ry rz
  position 0 0 0
  orientation 0 0 0
:bonedata
  begin
    id 1
    name RightUpLegDummy
    direction -0.718183 -0.695806 0.00816078
    length 4.904
    axis 0 0 0 xyz
  end
  begin
    id 2
    name RightUpLeg
    direction 3.53373e-006 -0.995788 0.0916898
    length 17.4976
    axis -3.49089 -0.000906625 0.000286804 xyz
    dof rx ry rz
  end
  begin
    id 3
    name RightLeg
    direction 0.00371092 -0.995096 -0.0988419
    length 16.5821
    axis 3.68512 0.0193738 -0.131023 xyz
    dof rx ry rz
  end
  begin
    id 4
    name RightFoot
    direction 0.00079151 -0.46099 0.887405
    length 3.77069
    axis 4.81691e-005 -0.120479 -0.188788 xyz
    dof rx ry rz
  end
  begin
    id 5
    name RightToes
    direction 0.00124746 -0.014064 0.9999
    length 3.85082
    axis 0.000481921 0.542163 -0.142578 xyz
    dof rx ry rz
  end
  begin
    id 6
    name SpineDummy
    direction 8.3039e-015 1 4.57515e-016
    length 4.6813
    axis 0 0 0 xyz
  end
  begin
    id 7
    name Spine
    direction -3.15643e-008 0.999988 0.00495137
    length 10.1015
    axis -0.001389 0.000121418 2.40972e-006 xyz
    dof rx ry rz
  end
  begin
    id 8
    name Spine1
    direction 0 0 0
    length 0
    axis -0.001389 0.000121451 1.30017e-006 xyz
    dof rx ry rz
  end
  begin
    id 9
    name HEadDummy
    direction -1.99912e-008 0.999999 0.00127422
    length 3.43865
    axis -0.001389 0.000121451 1.30017e-006 xyz
  end
  begin
    id 10
    name HEad
    direction -0.0222688 0.980941 0.193023
    length 5.12695
    axis -0.001389 0.000121451 1.30017e-006 xyz
    dof rx ry rz
  end
  begin
    id 11
    name LeftShoulder1Dummy
    direction 0.998891 -0.0402509 -0.0244456
    length 3.5433
    axis -0.001389 0.000121451 1.30017e-006 xyz
  end
  begin
    id 12
    name LeftShoulder1
    direction 0.99951 -0.000327763 0.0313091
    length 4.05031
    axis -0.001389 0.000121451 1.30017e-006 xyz
    dof rx ry rz
  end
  begin
    id 13
    name LeftArm
    direction 0.998561 -0.00100056 -0.0536182
    length 10.3537
    axis -23.1894 0.134784 0.967509 xyz
    dof rx ry rz
  end
  begin
    id 14
    name LeftForeArm
    direction 0.998903 0.00866432 0.046012
    length 8.70632
    axis -9.91835 -0.06569 -0.177794 xyz
    dof rx ry rz
  end
  begin
    id 15
    name LeftHand
    direction 0.992938 -0.0411637 0.11126
    length 5.32135
    axis -0.00960232 -0.00340091 0.185173 xyz
    dof rx ry rz
  end
  begin
    id 16
    name RightShoulderDummy
    direction -0.998891 -0.0402509 -0.0244414
    length 3.5433
    axis -0.001389 0.000121451 1.30017e-006 xyz
  end
  begin
    id 17
    name RightShoulder
    direction -0.99951 -0.000327807 0.0313133
    length 4.05031
    axis 0.215806 0.000203643 -0.0068026 xyz
    dof rx ry rz
  end
  begin
    id 18
    name RightArm
    direction -0.998573 -0.000999564 -0.053403
    length 10.3947
    axis -23.2009 -0.134239 -0.964101 xyz
    dof rx ry rz
  end
  begin
    id 19
    name RightForeArm
    direction -0.998898 0.00868028 0.0461306
    length 8.68355
    axis -9.92322 0.0658061 0.178868 xyz
    dof rx ry rz
  end
  begin
    id 20
    name RightHand
    direction -0.992843 -0.0414603 0.112003
    length 5.28593
    axis -0.00960638 0.00330671 -0.185228 xyz
    dof rx ry rz
  end
  begin
    id 21
    name LeftUpLegDummy
    direction 0.718183 -0.695806 0.00816078
    length 4.904
    axis 0 0 0 xyz
  end
  begin
    id 22
    name LeftUpLeg
    direction -6.81752e-006 -0.995793 0.0916337
    length 17.4976
    axis -3.48766 0.00143442 -0.000524262 xyz
    dof rx ry rz
  end
  begin
    id 23
    name LeftLeg
    direction -0.00601358 -0.995091 -0.0987824
    length 16.5821
    axis 3.68178 -0.00654042 -0.000285133 xyz
    dof rx ry rz
  end
  begin
    id 24
    name LeftFoot
    direction -0.00417578 -0.460984 0.887399
    length 3.77069
    axis 1.87233e-006 4.66016e-005 -8.6538e-006 xyz
    dof rx ry rz
  end
  begin
    id 25
    name LeftToes
    direction 0.00818058 -0.00485161 0.999955
    length 3.85048
    axis 1.06247e-005 4.65869e-005 -8.65513e-006 xyz
    dof rx ry rz
  end
:hierarchy
  begin
    root RightUpLegDummy SpineDummy LeftUpLegDummy
    RightUpLegDummy RightUpLeg
    RightUpLeg RightLeg
    RightLeg RightFoot
    RightFoot RightToes
    SpineDummy Spine
    Spine Spine1
    Spine1 HEadDummy LeftShoulder1Dummy RightShoulderDummy
    HEadDummy HEad
    LeftShoulder1Dummy LeftShoulder1
    LeftShoulder1 LeftArm
    LeftArm LeftForeArm
    LeftForeArm LeftHand
    RightShoulderDummy RightShoulder
    RightShoulder RightArm
    RightArm RightForeArm
    RightForeArm RightHand
    LeftUpLegDummy LeftUpLeg
    LeftUpLeg LeftLeg
    LeftLeg LeftFoot
    LeftFoot LeftToes
  end

:SAMPLES-PER-SECOND 30
:FRAME-RANGE 1-2643
:FULLY-SPECIFIED
:DEGREES
1
root  47.3879 40.4422 -76.9786 -5.02664 -71.6368 4.07343
RightUpLeg  7.02554 -7.13202 -3.88123
RightLeg  -0.367683 -15.9265 2.04198
RightFoot  -5.12024 -0.258008 4.13313
RightToes  7.56698e-010 0 -3.6325e-017
Spine  0.43411 0.889001 3.88417
Spine1  2.53543 1.519 -2.53744
HEad  6.53763 17.4541 -3.06742
LeftShoulder1  1.39322 -0.00198065 -33.5052
LeftArm  14.1473 5.07895 -34.3008
LeftForeArm  5.58654 -8.59092 -15.798
LeftHand  0.364969 -1.10103 -6.32606
RightShoulder  8.57514 10.5805 53.2514
RightArm  28.5471 1.90732 15.5205
RightForeArm  12.0836 5.83066 17.0821
RightHand  0.548428 5.3144 5.66897
LeftUpLeg  2.10667 8.64597 5.83353
LeftLeg  -1.92799 6.25416 -2.18338
LeftFoot  2.23148 0.879982 -7.49045
LeftToes  1.48244e-010 1.61973e-010 3.308e-011
2
root  47.3882 40.4422 -76.9886 -4.91525 -71.5056 4.03466
RightUpLeg  6.93253 -7.14348 -3.85993
RightLeg  -0.314407 -16.0525 2.06099
RightFoot  -5.1627 -0.258456 4.14008
RightToes  7.56698e-010 0 -3.6325e-017
Spine  0.549471 0.849975 3.83351
Spine1  2.42976 1.47086 -2.49139
HEad  5.7043 17.4874 -3.25465
LeftShoulder1  1.39322 -0.0130494 -33.5424
LeftArm  14.0957 5.14803 -34.2306
LeftForeArm  5.76019 -8.39724 -15.8927
LeftHand  0.362776 -1.13535 -6.21117
RightShoulder  8.56746 10.5538 53.3029
RightArm  28.7836 1.87081 15.5399
RightForeArm  12.0707 5.47172 17.2608
RightHand  0.547407 5.35951 5.64635
LeftUpLeg  1.95709 8.64162 5.84945
LeftLeg  -1.8444 6.0529 -2.18938
LeftFoot  2.19093 0.882973 -7.53734
LeftToes  1.48244e-010 1.61973e-010 3.308e-011
3
root  47.3839 40.4432 -76.9957 -4.90416 -71.4458 4.0828
RightUpLeg  6.89876 -7.16571 -3.87425
RightLeg  -0.343832 -16.0828 2.10001
RightFoot  -5.18162 -0.25671 4.11298
RightToes  7.56698e-010 0 -3.6325e-017
Spine  0.689623 0.856598 3.82363
Spine1  2.29369 1.47707 -2.49451
HEad  5.0284 17.5069 -3.3179
LeftShoulder1  1.39322 -0.0143191 -33.5545
LeftArm  13.3673 5.04827 -34.2095
LeftForeArm  6.52367 -7.73494 -16.1516
LeftHand  0.362488 -1.1965 -6.19675
RightShoulder  8.55655 10.5115 53.3923
RightArm  28.2722 1.76556 15.4525
RightForeArm  12.51 5.01855 17.389
RightHand  0.547867 5.29359 5.62642
LeftUpLeg  1.86424 8.68378 5.84637
LeftLeg  -1.78561 6.09384 -2.22864
LeftFoot  2.15056 0.88729 -7.60501
LeftToes  1.48244e-010 1.61973e-010 3.308e-011
4
root  47.3759 40.438 -76.9986 -5.0052 -71.4438 4.16814
RightUpLeg  6.91025 -7.35596 -4.00271
RightLeg  -0.245556 -15.8654 2.2188
RightFoot  -5.32645 -0.249252 4.05171
RightToes  7.56698e-010 0 -3.6325e-017
Spine  0.802258 0.863219 3.83832
Spine1  2.26354 1.47937 -2.44714
HEad  4.31368 17.7992 -3.71534
LeftShoulder1  1.39322 -0.00779938 -33.6125
LeftArm  13.2367 5.04137 -34.1561
LeftForeArm  6.61351 -7.50259 -16.2566
LeftHand  0.365405 -1.20001 -6.34938
RightShoulder  8.57248 10.5337 53.4064
RightArm  28.0863 1.65397 15.426
RightForeArm  12.6352 4.73913 17.4813
RightHand  0.549076 5.2994 5.63607
LeftUpLeg  1.91017 8.76916 5.89509
LeftLeg  -1.77451 5.86765 -2.32035
LeftFoot  2.12714 0.869848 -7.46989
LeftToes  1.48244e-010 1.61973e-010 3.308e-011
5
root  47.377 40.4272 -77.0039 -5.37147 -71.4571 4.47766
RightUpLeg  6.78407 -7.71275 -4.2935
RightLeg  0.281525 -15.4174 2.3154
RightFoot  -5.7593 -0.233791 3.98941
RightToes  7.56698e-010 0 -3.6325e-017
Spine  1.06348 0.863431 3.84678
Spine1  2.15887 1.49772 -2.49986
HEad  3.70759 18.161 -3.89255
LeftShoulder1  1.39949 -0.0276452 -33.568
LeftArm  12.744 4.95925 -34.1798
LeftForeArm  7.07749 -7.05085 -16.4188
LeftHand  0.362015 -1.18631 -6.30415
RightShoulder  8.55739 10.5031 53.4281
RightArm  28.5207 1.63039 15.4057
RightForeArm  12.1876 4.78495 17.5198
RightHand  0.545907 5.27457 5.5886
LeftUpLeg  1.86908 8.85634 5.86103
LeftLeg  -1.48226 5.85988 -2.39729
LeftFoot  1.85252 0.858057 -7.51046
LeftToes  1.48244e-010 1.61973e-010 3.308e-011
6
root  47.397 40.3848 -77.0132 -5.99273 -71.5227 5.01934
RightUpLeg  6.0737 -8.0744 -4.6378
RightLeg  2.06818 -14.9188 2.02218
RightFoot  -6.82253 -0.211969 4.19389
RightToes  7.56698e-010 0 -3.6325e-017
Spine  1.50486 0.867355 3.84656
Spine1  1.97496 1.52787 -2.58107
HEad  3.2636 18.5824 -4.13734
LeftShoulder1  1.40375 -0.0359857 -33.5947
LeftArm  13.0285 4.97536 -34.1554
LeftForeArm  6.62887 -7.26048 -16.3613
LeftHand  0.362593 -1.08925 -6.41971
RightShoulder  8.55385 10.526 53.323
RightArm  27.4537 1.55452 15.4541
RightForeArm  13.2691 4.54916 17.4702
RightHand  0.543001 5.24911 5.65956
LeftUpLeg  1.49348 8.88609 5.75455
LeftLeg  -0.442654 5.82463 -2.37739
LeftFoot  1.15575 0.817429 -7.5236
LeftToes  1.48244e-010 1.61973e-010 3.308e-011
7
root  47.4114 40.3084 -77.0271 -7.14997 -71.6401 5.96195
RightUpLeg  5.02661 -8.39234 -5.03201
RightLeg  4.88996 -14.4193 1.32525
RightFoot  -8.29836 -0.174167 4.43096
RightToes  7.56698e-010 0 -3.6325e-017
Spine  2.19818 0.914686 3.73685
Spine1  1.70621 1.60086 -2.60799
HEad  2.89437 18.9621 -4.60977
LeftShoulder1  1.41454 -0.0569497 -33.6637
LeftArm  13.0714 4.83244 -34.1342
LeftForeArm  6.5895 -7.17252 -16.4106
LeftHand  0.35186 -1.06271 -6.28244
RightShoulder  8.52043 10.5247 53.1272
RightArm  28.1942 1.58286 15.5897
RightForeArm  12.4692 4.85533 17.4464
RightHand  0.536214 5.29336 5.58629
LeftUpLeg  0.928466 8.93166 5.57249
LeftLeg  1.36594 5.84363 -2.2833
LeftFoot  0.0875554 0.756082 -7.55514
LeftToes  1.48244e-010 1.61973e-010 3.308e-011
8
root  47.4055 40.229 -77.0388 -8.48021 -71.7124 6.78546
RightUpLeg  4.5223 -8.52513 -5.26578
RightLeg  7.21735 -14.1257 0.522429
RightFoot  -9.50604 -0.137895 4.57445
RightToes  7.56698e-010 0 -3.6325e-017
Spine  2.95691 0.926813 3.76568
Spine1  1.76623 1.6662 -2.66923
HEad  2.66752 19.3521 -4.99599
LeftShoulder1  1.41581 -0.0547068 -33.7238
LeftArm  13.2679 4.53707 -34.1305
LeftForeArm  6.36474 -7.24283 -16.4014
LeftHand  0.344287 -0.971079 -6.21747
RightShoulder  8.62884 10.7236 53.0531
RightArm  29.2852 1.60065 15.6031
RightForeArm  11.3955 5.36614 17.3688
RightHand  0.533112 5.24927 5.56125
LeftUpLeg  0.686051 9.03046 5.47682
LeftLeg  3.21856 5.73467 -2.17243
LeftFoot  -1.06237 0.702214 -7.72989
LeftToes  1.48244e-010 1.61973e-010 3.308e-011
9
root  47.3482 40.1639 -77.027 -9.50083 -71.5916 7.07993
RightUpLeg  4.82823 -8.56131 -5.30089
RightLeg  8.51456 -14.1365 -0.190196
RightFoot  -10.3289 -0.111992 4.73278
RightToes  7.56698e-010 0 -3.6325e-017
Spine  3.6904 0.860509 4.17049
Spine1  1.91746 1.70102 -2.87799
HEad  2.84413 19.5652 -5.32829
LeftShoulder1  1.42567 -0.0739203 -33.7853
LeftArm  13.1614 4.23804 -34.0747
LeftForeArm  6.65388 -7.11326 -16.4424
LeftHand  0.349341 -1.0726 -6.19951
RightShoulder  8.73101 10.9206 52.9511
RightArm  30.047 1.60047 15.662
RightForeArm  10.7739 5.54635 17.3784
RightHand  0.531867 5.24701 5.48005
LeftUpLeg  0.819116 9.26659 5.45356
LeftLeg  4.80642 5.18649 -1.88507
LeftFoot  -1.9702 0.640658 -7.66582
LeftToes  1.48244e-010 1.61973e-010 3.308e-011
10
root  47.2377 40.1166 -76.9843 -10.1383 -71.4266 7.18885
RightUpLeg  5.36137 -8.68793 -5.42811
RightLeg  9.15155 -14.0717 -0.510018
RightFoot  -10.9341 -0.0918942 4.9614
RightToes  7.56698e-010 0 -3.6325e-017
Spine  3.80476 0.836432 4.84825
Spine1  2.37995 1.8046 -3.19386
HEad  3.46432 19.863 -5.58599
LeftShoulder1  1.43357 -0.0828665 -33.9049
LeftArm  13.1456 3.93819 -33.9915
LeftForeArm  6.77673 -6.96622 -16.5074
LeftHand  0.3554 -1.17117 -6.20305
RightShoulder  8.81881 11.1159 52.7743
RightArm  30.2226 1.50884 15.7369
RightForeArm  10.9093 5.49382 17.401
RightHand  0.541966 5.255 5.58512
LeftUpLeg  0.99053 9.45885 5.34109
LeftLeg  5.96634 4.76695 -1.4874
LeftFoot  -2.67954 0.596888 -7.66264
LeftToes  1.48244e-010 1.61973e-010 3.308e-011
11
root  47.0618 40.0807 -76.9304 -10.6768 -71.3881 7.38714
RightUpLeg  5.92602 -8.81296 -5.60083
RightLeg  9.46019 -13.8747 -0.639801
RightFoot  -11.3727 -0.0758219 5.12675
RightToes  7.56698e-010 0 -3.6325e-017
Spine  3.67159 0.931039 5.49687
Spine1  2.65288 1.9957 -3.44327
HEad  4.77634 20.1033 -5.89964
LeftShoulder1  1.41614 -0.0347318 -33.9549
LeftArm  13.2198 4.09685 -34.0215
LeftForeArm  6.86616 -7.06166 -16.4644
LeftHand  0.358865 -1.24754 -6.18419
RightShoulder  8.82602 11.1831 52.5818
RightArm  30.8459 1.31161 15.808
RightForeArm  10.6379 5.58588 17.4144
RightHand  0.542597 5.21962 5.61282
LeftUpLeg  1.34752 9.66156 5.33884
LeftLeg  6.63193 4.42416 -1.29363
LeftFoot  -3.20117 0.567535 -7.69929
LeftToes  1.48244e-010 1.61973e-010 3.308e-011
